<?xml version="1.0" encoding="utf-8"?>

<!DOCTYPE svg PUBLIC "-//W3C//DTD SVG 1.1//EN" "http://www.w3.org/Graphics/SVG/1.1/DTD/svg11.dtd">
<svg version="1.1" id="Layer_1" xmlns="http://www.w3.org/2000/svg" xmlns:xlink="http://www.w3.org/1999/xlink" x="0px" y="0px"
	 viewBox="0 0 1219.993 1654.422" enable-background="new 0 0 1219.993 1654.422" xml:space="preserve">
<g>
	<path d="M33.185,197.425c1.788-5.11,10.015-11.8,21.468-25.419c23.314-27.722,9.752-44.726,20.303-71.575
		c3.49-8.88,8.531-15.91,18.109-19.645c23.514-9.172,31.064-49.365,89.076-53.107c68.61-4.425,100.735,19.768,158.481,22.183
		c-2.376,5.226-6.875,4.686-16.713,15.711c-1.908,2.138-1.924,3.194,1.036,4.797c20.627,11.177,20.768,4.572,51.388,33.589
		c15.707,14.884,32.357,15.135,39.926,18.437c-4.078,2.547-8.425,3.998-12.056,6.764c-8.538,6.506-2.372,7.28,19.307,18.513
		c10.858,5.626,10.908,11.709,8.065,15.015c-4.107,4.775,7.423,20.021,12.551,25.136c2.219-0.469,2.73-2.337,3.685-3.74
		c8.675-12.738,13.359-21.75,22.971-26.734c15.566-8.072,17.18,9.012,21.381,17.147c10.949,21.201,142.216,3.441,209.529,29.369
		c72.998,28.118,112.456,58.725,148.691,97.422c119.473,127.59,234.027,291.332,269.839,382.246
		c7.41,18.811,11.072,45.329,26.939,77.075c12.482,24.974,19.801,48.306,20.984,77.028c4.364,106.036-9.643,86.308-22.272,131.98
		c-1.005,3.634-0.585,4.588,2.917,4.855c6.898,0.527,13.191,3.265,19.775,4.927c20.214,5.103,18.789,22.104,18.07,43.372
		c-0.314,9.29-4.95,6.373-17.216,10.501c-11.074,3.727,0.186-34.546-6.952,566.775c-0.116,9.78,0.664,8.867-8.99,8.883
		c-53.162,0.089-48.411,1.808-48.693-6.054c-2.604-72.622-2.508-74.802-5.459-181.415c-0.496-17.916,23.162-10.246-407.512-11.61
		c-13.095-0.041-4.878-16.701-10.674,194.164c-0.129,4.708-0.245,4.867-4.869,4.884c-68.5,0.246-62.189,1.46-62.414-4.718
		c-0.02-0.552,0.009-496.523,0.009-497.075c0-9.732,0.105-9.021-8.863-10.229c-18.049-2.432-36.392-3.069-54.001-8.456
		c-6.51-1.992-13.159-3.612-20.061-3.592c-9.004,0.026-12.198,3.29-12.378,12.399c-0.136,6.925,1.365,13.611,3.446,20.078
		c13.673,42.505,16.711,89.174,18.139,259.884c1.889,225.765,5.267,162.531-50.14,163.503c-37.82,0.662,13.725,53.09-28.757,79.365
		c-15.971,9.877-121.025-6.488-167.498-2.73c-36.28,2.934-27.73,5.047-72.114,7.654c-53.617,3.149-125.174,2.835-147.032,0.238
		c-7.381-0.877-18.464-1.062-22.127-12.162c-3.029-9.179,6.43-12.268,16.337-13.899c30.202-4.972,31.455-13.586,86.575-31.254
		c33.46-10.725,92.315-36.929,114.084-57.834c4.102-3.939,8.7-8.608-7.673-18.613c-22.955-14.026-43.879-12.251-37.459-26.554
		c6.273-13.975,11.498-5.438,17.525-86.958c9.75-131.887,1.287-472.164,18.262-519.04c13.589-37.527,39.872-56.445,78.356-70.832
		c5.149-1.925,10.337-3.516,15.883-4.162c7.474-0.872,14.273-4.305,21.351-6.665c3.639-1.213,1.144-3.597-4.169-11.968
		c-82.469-129.924-36.099-274.487-124.513-332.423c-31.908-20.909-65.614-36.332-91.91-56.939
		c-34.457-27.002-51.516,6.948-82.528-28.763c-7.33-8.44-7.698-13.862-11.807-10.208c-4.751,4.226-10.401,7.337-14.9,11.904
		c-6.707,6.809-15.704,7.754-9.39-6.968c9.962-23.226,3.932-29.179,4.32-98.748c0.063-11.255,0.124-19.894,7.76-27.739
		c6.896-7.085,8.952-10.37,5.066-14.174c-3.759-3.678-8.336-4.642-13.375-4.135C38.124,197.305,36.052,198.45,33.185,197.425z
		 M968.553,1351.069c143.792-2.16,130.187,1.256,130.165-9.597c-0.558-264.958,4.908-236.522-9.514-236.517
		c-441.737,0.147-405.139-2.863-405.205,7.999c-1.591,261.539-2.736,234.435,8.158,236.328
		C723.394,1354.707,937.157,1351.54,968.553,1351.069z M420.238,345.118c-25.493-2.785-17.953-4.976-54.651,56.102
		c-7.019,11.682-4.075,16.03,9.512,53.386c30.192,83.009,29.383,79.932,33.067,80.075
		C426.474,535.389,447.377,348.083,420.238,345.118z M696.956,734.605c-0.587-1.38-1.3-2.572-2.649-2.908
		c-1.002-0.249-135.195-51.248-143.772-53.214c-11.508-2.636-6.694,23.609-24.642,65.916c-1.195,2.818-1.846,5.829-1.917,8.972
		c-0.106,4.694-0.199,4.623,4.275,5.343c22.613,3.634,113.75-10.962,132.711-14.262
		C673.196,742.324,685.537,740.331,696.956,734.605z"/>
</g>
</svg>
