<?xml version="1.0" encoding="UTF-8"?>
<!DOCTYPE svg PUBLIC "-//W3C//DTD SVG 1.1//EN" "http://www.w3.org/Graphics/SVG/1.1/DTD/svg11.dtd">
<svg version="1.1" xmlns="http://www.w3.org/2000/svg" xmlns:xlink="http://www.w3.org/1999/xlink" x="0" y="0" width="719.419" height="460.528" viewBox="0, 0, 719.419, 460.528">
  <g id="Layer_1">
    <path d="M0.499,455.465 C-3.283,424.357 14.055,400.703 65.942,366.182 L80.265,356.653 L82.739,350.653 C99.452,310.115 121.531,281.362 150.095,262.938 C162.806,254.739 184.673,245.978 203.682,241.468 L210.994,239.732 L211.021,234.068 C211.08,221.618 212.18,214.502 215,208.34 C216.462,205.143 217.404,202.528 217.092,202.528 C216.207,202.528 212.938,206.238 209.662,210.962 L206.673,215.271 L205.646,212.837 C205.08,211.494 204.645,208.048 204.678,205.153 C204.727,200.745 205.167,199.001 207.427,194.278 C208.906,191.184 211.021,187.197 212.126,185.418 L214.136,182.183 L211.253,182.679 C204.889,183.772 198.82,185.33 196.752,186.399 C193.662,187.997 193.54,187.868 195.151,184.71 C197.717,179.682 207.148,171.778 210.582,171.778 C212.386,171.778 211.959,170.728 209.586,169.326 C205.77,167.072 199.248,159.357 197.958,155.572 C196.875,152.395 196.271,146.278 197.04,146.278 C197.203,146.278 198.453,147.322 199.82,148.598 C203.056,151.621 208.746,155.526 209.222,155.05 C209.427,154.845 208.758,153.026 207.736,151.008 C204.361,144.348 203.299,139.258 203.636,131.362 C203.902,125.129 204.274,123.467 206.381,119.093 C209.474,112.673 215.793,105.812 222.994,101.055 L228.619,97.339 L225.081,97.714 C221.212,98.123 212.808,101.842 206.204,106.066 C203.597,107.734 201.994,108.384 201.994,107.775 C201.994,105.98 205.493,96.477 207.976,91.528 C212.784,81.944 221.999,71.381 230.885,65.267 C236.34,61.514 246.391,57.104 254.34,54.976 C260.883,53.224 263.032,53.021 275.586,52.965 C285.813,52.919 289.464,52.671 289.221,52.037 C288.129,49.189 272.951,40.931 262.12,37.291 C259.095,36.275 256.911,35.263 257.266,35.044 C257.621,34.824 260.603,33.959 263.891,33.121 C281.885,28.536 303.215,29.339 320.072,35.236 C322.522,36.093 327.366,38.33 330.839,40.207 C334.311,42.084 337.225,43.515 337.314,43.387 C337.404,43.258 338.438,41.465 339.612,39.403 C342.877,33.669 345.831,30.101 352.158,24.255 C362.915,14.312 376.412,6.573 389.719,2.717 C396.151,0.853 408.244,-0.704 408.244,0.331 C408.244,0.617 406.565,3.641 404.513,7.051 C400.319,14.02 397.398,21.196 396.606,26.483 C395.965,30.756 396.719,37.615 398.027,39.403 C398.913,40.614 399.306,40.575 404.27,38.784 C416.121,34.51 429.221,34.641 443.494,39.179 C460.811,44.684 476.861,55.431 487.51,68.653 C492.093,74.342 498.244,85.395 498.244,87.94 C498.244,90.602 493.683,90.683 486.244,88.153 C480.809,86.304 477.01,85.839 474.673,86.736 C473.737,87.095 474.479,88.264 478.092,92.127 C483.069,97.447 485.848,102.603 486.892,108.458 C487.255,110.49 487.468,120.928 487.366,131.653 C487.169,152.357 486.838,154.521 483.02,160.034 C481.547,162.162 481.547,162.167 483.177,165.068 C484.074,166.664 485.013,169.698 485.263,171.81 C485.634,174.944 486.045,175.774 487.498,176.327 C490.457,177.452 496.941,181.933 499.988,184.959 C504.296,189.238 507.11,195.555 508.314,203.653 C509.072,208.752 507.821,209.134 504.68,204.762 C500.499,198.944 496.288,194.623 492.309,192.069 C487.245,188.819 486.244,188.998 486.244,193.149 C486.244,196.085 486.736,197.126 490.051,201.211 C492.145,203.792 495.178,208.265 496.791,211.153 C499.612,216.2 503.223,225.549 502.596,226.176 C501.849,226.923 496.566,224.59 495.852,223.199 C494.572,220.704 489.248,213.778 488.611,213.778 C488.289,213.778 488.446,216.225 488.959,219.215 C489.473,222.206 490.127,227.6 490.414,231.203 C490.701,234.805 491.315,238.039 491.778,238.388 C492.241,238.737 496.838,239.773 501.994,240.689 C516.025,243.183 537.928,248.727 547.311,252.16 C578.89,263.714 602.07,283.168 619.773,312.974 C625.168,322.058 631.368,334.751 634.86,343.862 L637.369,350.407 L650.119,358.864 C678.082,377.413 695.226,393.107 707.242,411.157 C717.366,426.364 721.189,441.297 718.667,455.779 L717.84,460.528 L359.477,460.528 L1.114,460.528 z" fill="#000000" id="path56132"/>
    <path d="M362.222,404.216 C369.396,403.218 378.986,400.288 383.494,397.717 C392.263,392.715 400.68,382.713 420.157,354.151 L430.046,339.649 L428.146,334.901 C423.231,322.615 423.88,300.772 429.738,281.278 C430.792,277.771 432.08,274.059 432.601,273.028 C433.37,271.507 433.352,269.807 432.504,264.028 C431.38,256.362 431.634,251.452 433.442,245.887 C434.505,242.614 434.479,242.034 433.068,237.465 C432.235,234.767 431.005,227.787 430.335,221.955 L429.117,211.35 L425.966,207.482 C424.233,205.354 422.365,202.526 421.814,201.196 C421.263,199.866 420.586,198.778 420.308,198.778 C420.031,198.778 419.361,196.78 418.819,194.339 L417.834,189.9 L412.477,188.614 C409.53,187.907 401.511,185.517 394.656,183.303 C383.43,179.677 381.568,179.285 375.906,179.352 C372.448,179.394 368.818,179.652 367.839,179.927 C366.171,180.394 366.369,180.685 370.978,184.525 C373.685,186.779 375.773,188.749 375.62,188.902 C375.27,189.252 357.26,184.021 353.713,182.539 C352.266,181.934 350.982,181.544 350.86,181.671 C350.738,181.799 350.926,185.615 351.278,190.153 C352.124,201.058 352.137,212.98 351.301,211.528 C350.34,209.857 348.994,195.998 348.994,187.771 L348.994,180.574 L345.502,181.052 C343.582,181.315 334.048,181.683 324.315,181.869 L306.619,182.208 L320.869,180.745 C328.706,179.941 336.95,179.081 339.188,178.835 L343.258,178.387 L339.188,176.054 C333.453,172.767 327.047,166.164 325.398,161.84 C324.651,159.881 323.833,158.28 323.579,158.284 C323.326,158.286 322.364,159.61 321.442,161.225 C318.451,166.463 310.977,175.137 305.525,179.698 C299.285,184.917 294.729,187.7 288.906,189.851 C285.163,191.233 284.598,191.723 283.843,194.241 C283.376,195.801 282.994,197.414 282.994,197.827 C282.994,198.267 286.638,197.827 291.806,196.763 C311.138,192.785 327.809,191.09 333.244,192.553 C335.031,193.034 300.843,197.937 287.337,199.136 C282.683,199.55 281.472,199.916 281.123,201.013 C280.886,201.762 279.608,203.844 278.286,205.639 C276.388,208.213 275.61,210.403 274.599,216.003 C273.895,219.908 273.411,223.196 273.525,223.309 C273.638,223.422 276.042,222.352 278.867,220.931 C288.326,216.171 294.327,215.746 309.426,218.766 C322.643,221.409 332.358,221.577 336.731,219.239 C340.799,217.063 342.943,213.46 343.644,207.621 L344.21,202.903 L345.852,208.044 C348.907,217.613 347.428,224.586 341.482,228.641 C338.055,230.978 334.033,230.625 320.494,226.798 C311.146,224.155 309.62,223.934 300.619,223.919 C291.597,223.905 290.322,224.085 283.547,226.34 C279.52,227.681 275.133,228.783 273.797,228.789 C271.521,228.8 271.259,229.085 269.612,233.363 L267.855,237.926 L269.566,241.79 C271.048,245.137 271.302,247.105 271.475,256.534 C271.67,267.202 271.725,267.526 274.304,273.109 C280.182,285.829 283.318,300.69 283.31,315.778 C283.304,325.304 283.093,327.184 281.606,330.934 C279.834,335.405 276.401,339.028 273.936,339.028 C273.143,339.028 272.494,339.251 272.494,339.523 C272.494,340.582 281.587,352 299.688,373.671 C312.324,388.8 319.651,396.953 321.879,398.366 C330.804,404.026 346.854,406.353 362.221,404.216 z" fill="#F8D2B5" id="path56130"/>
    <path d="M343.882,369.761 C339.153,369.109 334.752,367.176 334.196,365.506 C333.73,364.11 337.516,362.072 342.523,361.023 C348.585,359.752 362.495,359.787 368.021,361.087 C370.442,361.656 373.069,362.769 373.86,363.56 C375.247,364.947 375.25,365.04 373.937,366.229 C370.715,369.144 353.814,371.13 343.882,369.761 z" fill="#000000" id="path56128"/>
    <path d="M298.359,353.267 C297.165,351.947 297.096,351.306 297.813,348.204 C299.93,339.045 304.885,332.256 311.699,329.175 L315.619,327.403 L348.244,327.598 C381.626,327.797 387.491,328.225 392.599,330.831 C397.988,333.58 403.071,340.449 405.194,347.851 C406.034,350.78 404.702,352.528 401.628,352.528 C400.523,352.527 393.492,351.037 386.003,349.216 C357.456,342.273 347.098,342.642 316.447,351.698 C304.643,355.186 300.427,355.552 298.359,353.267 z" fill="#000000" id="path56126"/>
    <path d="M377.119,341.248 C385.782,340.816 393.653,340.296 394.61,340.093 C396.877,339.61 396.371,338.279 393.219,336.439 C389.879,334.488 376.574,334.003 360.371,335.24 C350.352,336.005 346.519,335.954 334.369,334.894 C318.731,333.529 311.752,333.842 309.068,336.028 L307.369,337.411 L309.359,338.173 C318.13,341.532 346.015,342.797 377.119,341.248 z" fill="#FC0202" id="path56124"/>
    <path d="M406.063,331.482 C401.481,320.135 395.51,309.166 391.569,304.853 C385.93,298.684 385.772,298.651 380.298,302.532 C369.776,309.991 362.555,312.284 349.369,312.354 C336.104,312.424 326.971,309.562 319.516,303 C315.301,299.29 314.339,299.437 309.804,304.481 C305.599,309.158 302.746,314.635 298.33,326.506 C295.989,332.8 294.545,335.772 294.138,335.131 C293.104,333.501 293.42,321.637 294.624,316.873 C296.698,308.664 301.956,299.224 308.083,292.712 C314.369,286.029 320.051,282.392 321.258,284.278 C321.654,284.896 321.776,285.909 321.529,286.528 C321.281,287.146 320.909,289.033 320.703,290.72 C320.376,293.382 320.591,293.995 322.331,295.364 C325.852,298.133 331.128,298.649 353.306,298.393 C372.887,298.167 374.331,298.055 377.691,296.503 C379.655,295.596 381.465,294.327 381.712,293.682 C381.959,293.038 381.596,290.781 380.905,288.668 C379.29,283.733 380.032,282.921 384.39,284.849 C389.012,286.893 392.645,290.3 396.684,296.375 C403.247,306.247 409.259,324.545 408.834,333.357 L408.62,337.811 z" fill="#000000" id="path56122"/>
    <path d="M299.119,248.584 C292.448,247.003 290.334,246.284 286.544,244.309 C284.164,243.069 282.34,241.932 282.489,241.783 C282.713,241.559 288.93,242.641 296.21,244.173 C297.586,244.462 297.857,244.08 298.226,241.331 C298.544,238.959 299.327,237.535 301.312,235.716 C307.546,230.003 317.494,234.539 317.494,243.095 L317.494,245.488 L321.432,245.011 C323.598,244.749 326.302,244.324 327.443,244.067 C329.162,243.679 329.435,243.811 329.039,244.841 C327.932,247.727 324.373,248.555 312.244,248.752 C305.851,248.855 299.944,248.78 299.119,248.585 z" fill="#000000" id="path56120"/>
    <path d="M308.99,244.269 C308.99,242.901 308.402,242.074 307.29,241.877 C304.944,241.462 303.647,242.891 304.398,245.063 C305.316,247.719 308.99,247.084 308.99,244.269 z" fill="#FFFFFF" id="path56118"/>
    <path d="M375.994,248.151 C371.663,246.929 371.857,246.22 376.676,245.661 L381.244,245.13 L381.244,242.167 C381.244,234.518 387.733,230.518 395.127,233.608 C398.103,234.851 400.738,238.687 400.742,241.783 L400.744,243.912 L407.307,243.388 C414.333,242.827 414.779,243.371 409.096,245.568 C400.858,248.755 383.052,250.144 375.994,248.151 z" fill="#000000" id="path56116"/>
    <path d="M393.223,243.402 C393.223,242.033 392.635,241.207 391.523,241.01 C389.177,240.595 387.88,242.024 388.631,244.196 C389.549,246.852 393.223,246.217 393.223,243.402 z" fill="#FFFFFF" id="path56515"/>
    <path d="M421.675,228.04 C413.224,223.674 408.6,222.53 399.244,222.488 C391.453,222.453 389.448,222.755 378.496,225.613 C371.828,227.354 365.643,228.778 364.751,228.778 C362.465,228.778 359.01,225.051 358.08,221.584 C357.202,218.308 355.552,204.72 355.981,204.291 C356.132,204.14 357.991,206.857 360.113,210.328 C364.043,216.76 366.968,219.36 371.232,220.213 C372.443,220.455 377.439,219.804 382.396,218.758 C398.223,215.418 411.33,214.687 416.99,216.827 C418.387,217.355 427.744,228.693 427.744,229.858 C427.744,230.736 425.723,230.13 421.675,228.04 z" fill="#000000" id="path56112"/>
    <path d="M408.244,196.495 C403.501,195.769 393.544,194.795 386.119,194.33 C378.694,193.865 370.763,193.269 368.494,193.005 L364.369,192.526 L367.369,191.945 C373.46,190.766 391.248,191.219 400.482,192.788 C408.506,194.152 418.744,196.914 418.744,197.714 C418.744,198.102 418.761,198.104 408.244,196.495 z" fill="#000000" id="path56110"/>
    <path d="M215.973,378.552 C222.05,370.036 233.798,356.754 240.392,350.944 C247.263,344.889 256.036,338.992 264.244,334.913 C267.338,333.375 270.625,331.422 271.549,330.574 C275.665,326.794 278.319,313.314 277.015,302.821 C276.066,295.182 274.879,291.047 270.397,279.778 C267.093,271.468 266.961,270.833 266.782,262.421 C266.68,257.618 265.863,249.403 264.967,244.166 L263.339,234.643 L265.703,229.984 C267.976,225.506 270.162,216.265 270.218,210.897 C270.236,209.155 271.023,207.481 272.801,205.405 C275.743,201.967 279.828,193.859 282.208,186.732 C283.595,182.577 284.274,181.585 286.567,180.357 C290.492,178.256 296.223,172.264 298.381,168.006 C301.449,161.951 300.452,155.888 296.059,153.887 C294.199,153.039 293.766,153.161 291.316,155.221 C289.833,156.468 285.244,159.834 281.119,162.701 C270.553,170.046 257.519,184.76 255.139,192.028 C253.625,196.653 243.842,216.434 243.504,215.554 C243.325,215.087 244.374,211.004 245.836,206.482 C247.298,201.96 248.494,198.054 248.494,197.803 C248.494,197.551 247.229,197.121 245.682,196.846 C244.135,196.57 241.256,195.665 239.284,194.834 C237.312,194.003 235.581,193.454 235.438,193.613 C235.295,193.772 234.274,195.59 233.169,197.653 C232.064,199.715 231.372,200.728 231.63,199.903 C231.888,199.078 232.284,197.487 232.51,196.367 C232.913,194.374 232.868,194.347 230.395,195.049 C224.555,196.708 223.969,197.21 222.247,202.023 C221.336,204.57 219.736,208.141 218.691,209.96 C216.848,213.167 216.804,213.564 217.22,223.085 C217.455,228.485 218.042,237.628 218.523,243.403 C220.283,264.544 217.536,291.359 212.375,303.403 C207.955,313.72 207.174,314.884 201.563,319.525 C198.538,322.028 195.373,325.045 194.529,326.23 C193.685,327.415 189.535,331.523 185.307,335.36 C181.079,339.196 177.513,342.934 177.382,343.664 C177.036,345.599 181.773,354.169 187.335,361.672 C196.196,373.627 207.289,384.109 210.954,383.99 C211.595,383.97 213.853,381.522 215.973,378.552 z" fill="#F8D2B5" id="path56108"/>
    <path d="M507.168,379.34 C514.783,369.25 531.244,340.464 531.244,337.237 C531.244,336.602 527.785,333.474 523.557,330.285 C504.11,315.619 495.277,306.956 493.418,300.728 C491.692,294.948 489.663,278.228 487.008,247.903 C484.688,221.417 484.48,219.509 483.161,212.571 C482.594,209.588 482.016,208.551 480.553,207.884 C479.52,207.413 478.585,207.028 478.475,207.028 C478.366,207.028 478.294,210.487 478.316,214.715 C478.358,223.059 476.809,229.127 473.099,235.153 L471.252,238.153 L471.244,235.528 C471.214,226.895 464.348,210.118 458.514,204.421 C456.869,202.815 455.368,201.655 455.18,201.843 C454.884,202.139 456.916,213.794 458.09,218.539 C459.302,223.433 453.435,209.459 450.177,199.691 C446.047,187.308 446.204,187.561 434.87,174.88 C431.57,171.188 427.595,166.633 426.037,164.758 C422.284,160.244 408.592,149.278 406.709,149.278 C405.846,149.278 404.582,150.3 403.694,151.715 C402.467,153.671 402.214,155.13 402.411,159.103 C402.777,166.49 406.817,174.23 414.113,181.528 C418.371,185.787 420.533,188.739 423.017,193.684 C424.822,197.276 428.022,202.101 430.129,204.407 L433.961,208.599 L434.951,219.071 C435.979,229.936 436.874,234.396 438.76,238.046 C439.75,239.963 439.725,240.754 438.518,245.546 C436.739,252.613 436.701,262.557 438.436,267.058 L439.749,270.462 L436.688,279.433 C432.276,292.361 430.681,300.373 430.658,309.716 C430.635,318.466 432.078,326.18 434.734,331.528 C436.351,334.782 436.895,335.145 449.921,341.653 C457.351,345.365 466.348,350.428 469.914,352.903 C478.073,358.566 490.441,369.516 497.469,377.299 C500.438,380.588 503.166,383.278 503.532,383.278 C503.897,383.278 505.534,381.506 507.168,379.34 z" fill="#F8D2B5" id="path56106"/>
    <path d="M474.911,216.778 C474.985,209.614 473.887,204.645 470.928,198.755 C465.463,187.873 454.202,177.188 438.577,168.057 C435.726,166.391 433.135,165.028 432.819,165.028 C430.989,165.028 433.156,168.105 440.427,175.831 C448.407,184.311 452.494,190.464 452.494,193.999 C452.494,195.005 453.082,195.863 453.961,196.142 C456.399,196.916 465.179,207.001 468.239,212.542 C469.817,215.401 471.51,219.296 472,221.196 C473.445,226.804 473.634,227.122 474.273,225.028 C474.588,223.996 474.875,220.284 474.911,216.778 z" fill="#FAA605" id="path56104"/>
    <path d="M496.032,215.563 C493.322,209.437 486.222,199.532 480.094,193.329 C476.841,190.037 474.296,187.227 474.438,187.084 C474.58,186.942 476.564,186.606 478.848,186.338 C486.98,185.382 495.539,189.473 501.883,197.347 C503.801,199.727 505.599,201.697 505.88,201.726 C506.748,201.814 505.232,197.559 502.707,192.821 C498.343,184.633 489.643,178.342 479.315,175.907 C474.925,174.872 468.244,174.382 468.244,175.095 C468.244,176.698 473.192,195.503 474.376,198.403 C475.677,201.587 476.475,202.433 479.67,204.012 C484.159,206.23 492.623,213.9 495.244,218.124 C497.603,221.925 498.113,220.266 496.032,215.563 z" fill="#FAA605" id="path56102"/>
    <path d="M209.494,207.07 C209.494,205.741 217.804,197.385 220.964,195.538 C222.7,194.523 225.638,193.261 227.494,192.734 C232.343,191.356 232.607,190.864 229.983,188.092 C228.713,186.75 227.287,184.898 226.814,183.976 C225.482,181.381 224.663,175.93 225.165,173.008 L225.619,170.367 L229.988,173.309 C235.236,176.844 240.338,178.623 240.847,177.096 C241.03,176.547 242.945,173.459 245.104,170.234 L249.028,164.372 L236.949,164.512 C221.036,164.697 215.088,163.216 205.519,156.684 C203.09,155.026 200.942,153.83 200.746,154.026 C200.002,154.77 203.502,160.279 206.62,163.271 C208.407,164.986 212.04,167.58 214.693,169.035 C219.416,171.626 219.471,171.691 217.318,172.158 C212.702,173.158 207.526,174.968 205.195,176.397 C202.652,177.957 199.29,182.073 199.989,182.772 C200.214,182.997 202.04,182.635 204.048,181.968 C207.584,180.793 217.817,179.199 218.414,179.729 C218.575,179.873 216.986,182.615 214.882,185.822 C212.778,189.029 210.518,193.171 209.861,195.028 C208.273,199.51 207.479,207.778 208.636,207.778 C209.108,207.778 209.494,207.459 209.494,207.07 z" fill="#FAA605" id="path56100"/>
    <path d="M253.607,187.082 L256.804,180.636 L253.587,181.269 C248.771,182.217 240.962,182 237.994,180.835 C236.551,180.269 233.753,178.799 231.778,177.57 C229.803,176.341 228.009,175.513 227.792,175.731 C227.074,176.448 228.927,181.851 230.862,184.689 C233.235,188.167 238.558,191.342 243.974,192.509 C250.43,193.9 250.146,194.059 253.607,187.082 z" fill="#FAA605" id="path56098"/>
    <path d="M481.744,190.153 C481.744,188.688 481.361,188.278 479.994,188.278 C477.429,188.278 477.092,189.034 478.964,190.596 C481.194,192.458 481.744,192.37 481.744,190.153 z" fill="#F8D2B5" id="path56096"/>
    <path d="M467.064,182.968 C466.417,180.732 461.615,171.309 456.392,162.028 C447.506,146.238 446.46,144.719 440.125,138.403 C432.524,130.825 421.609,122.278 419.535,122.278 C417.351,122.278 415.637,125.69 415.637,130.037 C415.637,137.158 419.711,145.109 428.588,155.315 C430.599,157.627 432.244,159.874 432.244,160.308 C432.244,160.742 435.005,162.499 438.38,164.211 C446.722,168.444 454.724,174.34 461.841,181.499 C465.113,184.79 467.891,187.381 468.014,187.258 C468.138,187.134 467.71,185.204 467.064,182.968 z" fill="#F8D2B5" id="path56094"/>
    <path d="M291.932,183.323 C301.266,178.209 309.271,170.679 318.954,157.903 C321.143,155.015 323.144,152.569 323.401,152.467 C323.659,152.365 324.861,154.179 326.073,156.499 C329.144,162.375 334.8,168.299 340.655,171.771 C345.17,174.449 363.284,183.028 364.423,183.028 C364.685,183.028 362.418,181.133 359.384,178.816 C351.996,173.174 347.014,168.353 344.403,164.318 C341.195,159.363 341.56,158.806 346.557,161.026 C371.173,171.962 409.546,185.469 412.86,184.364 C413.314,184.213 411.453,182.416 408.726,180.371 C404.7,177.352 403.271,175.682 401.131,171.489 C399.681,168.65 398.494,165.863 398.494,165.296 C398.494,164.729 397.06,163.702 395.307,163.014 C391.216,161.407 374.361,152.911 374.664,152.608 C374.791,152.482 379.276,154.008 384.632,155.999 C398.899,161.304 397.744,161.16 397.744,157.637 L397.744,154.644 L388.557,150.16 C380.538,146.245 362.691,136.019 360.655,134.172 C360.262,133.815 365.999,136.16 373.405,139.383 C380.81,142.605 389.629,146.347 393.003,147.697 L399.136,150.152 L401.902,147.09 C405.018,143.641 405.942,143.423 408.837,145.452 C409.955,146.235 413.521,148.632 416.762,150.779 L422.655,154.681 L419.387,150.018 C416.763,146.273 414.124,143.941 405.994,138.182 C400.426,134.237 395.532,130.697 395.119,130.315 C394.156,129.423 403.64,134.238 408.914,137.319 C412.896,139.644 412.951,139.653 412.438,137.917 C411.401,134.409 411.07,130.568 411.574,127.883 C412.157,124.774 417.434,118.528 419.477,118.528 C420.979,118.528 425.511,121.667 431.827,127.081 C434.356,129.249 436.058,130.305 435.761,129.521 C434.798,126.976 427.859,117.469 422.055,110.74 L416.307,104.077 L419.963,106.569 C421.974,107.94 425.827,111.275 428.526,113.982 C432.419,117.887 434.164,120.451 436.98,126.403 C438.931,130.528 440.803,134.409 441.14,135.028 C442.4,137.342 453.024,145.581 460.317,149.899 C475.13,158.67 475.429,158.801 477.71,157.528 C482.161,155.042 482.653,153.47 483.069,140.432 C483.828,116.665 480.855,105.525 470.52,93.403 C465.221,87.188 464.74,84.626 468.419,82.215 C470.576,80.801 474.958,80.543 483.057,81.353 C487.15,81.762 489.244,81.714 489.244,81.21 C489.244,80.791 487.858,78.373 486.164,75.835 C468.643,49.598 434.354,37.354 402.359,45.911 C394.065,48.13 393.965,48.117 392.71,44.653 C390.906,39.676 391.799,24.506 394.365,16.528 C395.492,13.021 396.908,9.193 397.51,8.021 C398.112,6.848 398.412,5.695 398.176,5.46 C397.324,4.608 388.5,7.637 381.387,11.223 C363.329,20.329 348.93,34.529 343.04,49.041 L341.331,53.251 L337.475,49.837 C332.613,45.532 318.973,38.769 311.119,36.77 C301.695,34.371 292.328,33.574 284.2,34.481 C280.326,34.913 276.363,35.559 275.395,35.918 C273.752,36.525 273.911,36.71 277.751,38.652 C284.218,41.924 290.45,46.417 295.744,51.628 C300.361,56.172 300.531,56.461 298.944,57.073 C298.023,57.429 288.573,58.583 277.944,59.637 C267.316,60.691 256.763,61.906 254.494,62.336 C239.347,65.209 227.09,72.124 218.644,82.562 C214.734,87.394 208.183,99.028 209.372,99.028 C209.775,99.028 212.245,98.068 214.862,96.895 C222.267,93.577 226.764,92.702 229.834,93.985 C234.54,95.953 234.677,96.995 230.577,99.652 C225.147,103.17 218.089,111.132 215.05,117.166 C210.608,125.987 209.214,136.485 211.014,147.572 C212.356,155.844 213.248,157.634 216.619,158.821 C221.597,160.573 230.312,162.028 235.837,162.028 L241.047,162.028 L246.909,157.178 C252.752,152.344 263.094,145.528 264.586,145.528 C265.018,145.528 269.927,142.842 275.495,139.56 C288.664,131.797 288.27,132.061 285.994,132.53 C278.406,134.097 251.181,144.507 240.27,150.015 C237.805,151.259 235.524,152.272 235.203,152.266 C233.608,152.233 250.802,141.751 259.191,137.642 C273.384,130.69 287.085,126.472 300.557,124.905 L304.995,124.388 L303.024,126.731 C301.939,128.02 300.718,130.284 300.31,131.763 C299.51,134.659 300.069,143.831 301.083,144.458 C302.998,145.641 308.652,140.466 317.124,129.778 C323.905,121.223 324.27,120.944 320.108,127.496 C314.467,136.375 307.343,145.765 303.698,149.125 L300.339,152.222 L301.759,155.062 C302.54,156.625 303.388,158.578 303.644,159.403 C304.049,160.71 304.728,160.251 308.927,155.833 C311.577,153.045 313.744,151.076 313.744,151.458 C313.744,152.596 306.304,163.369 304.519,164.815 C303.612,165.551 302.315,167.334 301.637,168.778 C299.433,173.475 295.812,177.731 291.044,181.23 C283.702,186.62 284.119,187.603 291.932,183.323 z" fill="#FAA605" id="path56092"/>
    <path d="M472.462,124.743 C464.176,107.993 456.12,99.669 429.215,80.057 L427.369,78.712 L429.619,79.136 C433.749,79.915 445.573,86.238 451.03,90.587 C457.575,95.801 464.968,104.86 468.91,112.496 C471.998,118.479 475.945,128.8 475.572,129.919 C475.451,130.284 474.051,127.955 472.462,124.743 z" fill="#000000" id="path56090"/>
    <path d="M321.673,81.115 C320.222,78.766 306.866,75.05 299.714,75.005 C294.902,74.974 296.92,73.859 303.044,73.164 C309.58,72.422 314.841,73.285 317.517,75.536 C319.712,77.384 323.196,81.778 322.465,81.778 C322.255,81.778 321.899,81.479 321.673,81.115 z" fill="#000000" id="path56088"/>
    <path d="M258.244,177.081 C260.063,176.537 262.004,174.888 264.56,171.717 C267.109,168.555 270.705,165.498 276.185,161.832 C291.03,151.903 294.769,148.859 295.741,145.913 C296.635,143.204 296.418,140.989 294.878,137.09 C293.795,134.351 291.673,134.411 285.865,137.343 C273.802,143.432 264.711,151.113 250.094,167.564 C246.644,171.447 243.244,176.74 243.244,178.229 C243.244,178.941 255.051,178.038 258.244,177.081 z" fill="#F8D2B5" id="path56086"/>
    <path d="M371.401,176.993 L375.619,176.958 L368.119,174.079 C363.994,172.495 358.848,170.491 356.682,169.625 C354.516,168.758 352.744,168.361 352.744,168.742 C352.744,169.122 354.994,171.342 357.743,173.675 C362.042,177.321 363.053,177.853 364.962,177.472 C366.183,177.228 369.08,177.012 371.401,176.993 z" fill="#FEC1AF" id="path56084"/>
    <path d="M480.994,171.258 C480.994,168.286 474.835,162.738 463.837,155.806 C458.736,152.591 454.411,150.111 454.226,150.296 C453.697,150.825 456.777,156.465 461.325,163.299 C464.349,167.843 466.024,169.669 467.431,169.955 C468.497,170.171 471.732,170.966 474.619,171.72 C477.507,172.474 480.123,173.133 480.432,173.184 C480.741,173.236 480.994,172.369 480.994,171.258 z" fill="#F8D2B5" id="path56082"/>
    <path d="M254.245,159.418 C255.116,158.808 257.301,156.531 259.099,154.359 C262.099,150.736 262.184,150.527 260.119,151.818 C257.076,153.722 250.043,159.092 249.552,159.887 C248.885,160.965 252.56,160.598 254.245,159.418 z" fill="#F8D2B5" id="path55930"/>
  </g>
</svg>
